<?xml version="1.0" encoding="UTF-8" standalone="no"?>
<svg width="120px" height="120px" viewBox="0 0 120 120" version="1.1" xmlns="http://www.w3.org/2000/svg" xmlns:xlink="http://www.w3.org/1999/xlink">
    <!-- Generator: Sketch 43.1 (39012) - http://www.bohemiancoding.com/sketch -->
    <title>Profile</title>
    <desc>Created with Sketch.</desc>
    <defs></defs>
    <g id="Tiles" stroke="none" stroke-width="1" fill="none" fill-rule="evenodd">
        <g id="Profile" fill-rule="nonzero">
            <g id="488938" transform="translate(17.000000, 17.000000)">
                <path d="M43,0.000334684002 C19.2507305,0.000334684002 0,19.1805728 0,42.8398869 C0,58.9977612 8.98397656,73.0610156 22.2414141,80.3584656 L22.2414141,69.4300288 C22.2414141,61.8076007 26.3930977,55.165964 32.5540234,51.5791556 C35.5655352,53.5188167 39.146293,54.6577464 43,54.6577464 C46.853707,54.6577464 50.4346328,53.5188167 53.4459766,51.5791556 C59.6069023,55.1657967 63.7585859,61.8074334 63.7585859,69.4300288 L63.7585859,80.3584656 C77.0160234,73.0610156 86,58.9977612 86,42.8398869 C86,19.1807401 66.7492695,0.000334684002 43,0.000334684002" id="Shape" fill="#000000"></path>
                <g id="Group" transform="translate(22.171875, 19.076988)" fill="#FFFFFF">
                    <path d="M34.1729063,13.4223346 C34.1729063,20.7656362 28.1989297,26.7173218 20.828125,26.7173218 C13.4573203,26.7173218 7.48334375,20.7656362 7.48334375,13.4223346 C7.48334375,6.07903287 13.4573203,0.127347263 20.828125,0.127347263 C28.1989297,0.127347263 34.1729063,6.07903287 34.1729063,13.4223346" id="Shape"></path>
                    <path d="M31.2739336,32.5014981 C28.2624219,34.4411592 24.6816641,35.5800889 20.827957,35.5800889 C16.97425,35.5800889 13.3933242,34.4411592 10.3819805,32.5014981 C4.22105469,36.0881392 0.0693710938,42.7297759 0.0693710938,50.3523714 L0.0693710938,61.2823142 C6.22425,64.6696509 13.2985898,66.6017817 20.827957,66.6017817 C28.3573242,66.6017817 35.4316641,64.6696509 41.586543,61.2823142 L41.586543,50.3523714 C41.586543,42.7297759 37.4348594,36.0881392 31.2739336,32.5014981" id="Shape"></path>
                </g>
                <path d="M43,0.000334684002 C42.2542187,0.000334684002 41.5128047,0.0195790141 40.7759258,0.0563942543 C63.4903398,1.21005001 81.5518516,19.9235713 81.5518516,42.8398869 C81.5518516,57.1186778 74.5398281,69.7638761 63.7587539,77.5472873 L63.7587539,80.3584656 C77.0160234,73.0610156 86,58.9977612 86,42.8398869 C86,19.1807401 66.7492695,0.000334684002 43,0.000334684002" id="Shape" fill="#000000"></path>
                <path d="M22.2414141,77.5474546 C11.4601719,69.7625374 4.44831641,57.1175064 4.44831641,42.8400543 C4.44831641,19.923906 22.5098281,1.21038469 45.2242422,0.0565615963 C44.4871953,0.0197463561 43.7457812,0.000502026003 43,0.000502026003 C19.2507305,0.000502026003 0,19.1807401 0,42.8400543 C0,58.9979285 8.98397656,73.0611829 22.2414141,80.3586329 L22.2414141,77.5474546 Z" id="Shape" fill="#E00122"></path>
            </g>
        </g>
    </g>
</svg>