<?xml version="1.0" encoding="UTF-8" standalone="no"?>
<svg width="120px" height="120px" viewBox="0 0 120 120" version="1.1" xmlns="http://www.w3.org/2000/svg" xmlns:xlink="http://www.w3.org/1999/xlink">
    <!-- Generator: Sketch 43.1 (39012) - http://www.bohemiancoding.com/sketch -->
    <title>My Admissions</title>
    <desc>Created with Sketch.</desc>
    <defs></defs>
    <g id="Tiles" stroke="none" stroke-width="1" fill="none" fill-rule="evenodd">
        <g id="My-Admissions" fill-rule="nonzero">
            <g id="220934" transform="translate(33.000000, 21.000000)">
                <path d="M33.6803276,5.37209524 L33.6803276,2.68604762 C33.6803276,1.20869048 32.468431,0 30.9871552,0 L22.9076379,0 C21.4263621,0 20.2144655,1.20869048 20.2144655,2.68604762 L20.2144655,5.37209524 L14.8281207,5.37209524 C14.0201379,5.37209524 13.4815345,5.90927381 13.4815345,6.71511905 L13.4815345,16.1162857 C13.4815345,16.922131 14.0201379,17.4593095 14.8281207,17.4593095 L39.0665172,17.4593095 C39.8745,17.4593095 40.4131034,16.922131 40.4131034,16.1162857 L40.4131034,6.71511905 C40.4131034,5.90927381 39.8745,5.37209524 39.0665172,5.37209524 L33.6803276,5.37209524 Z" id="Shape" fill="#000000"></path>
                <path d="M40.4132586,9.40116667 L40.4132586,16.1162857 C40.4132586,16.922131 39.8746552,17.4593095 39.0666724,17.4593095 L14.8281207,17.4593095 C14.0201379,17.4593095 13.4815345,16.7877976 13.4815345,16.1162857 L13.4815345,9.40116667 L5.40201724,9.40116667 C2.43946552,9.40116667 0.0156724138,11.8185476 0.0156724138,14.7732619 L0.0156724138,72.5229762 C0.0156724138,75.4776905 2.43946552,77.8950714 5.40201724,77.8950714 L48.4926207,77.8950714 C51.4551724,77.8950714 53.8789655,75.4776905 53.8789655,72.5229762 L53.8789655,14.7732619 C53.8789655,11.8185476 51.4551724,9.40116667 48.4926207,9.40116667 L40.4132586,9.40116667 L40.4132586,9.40116667 Z" id="Shape" fill="#EFEADD"></path>
                <g id="Group" transform="translate(8.068966, 26.773810)" fill="#D4D0BA">
                    <path d="M22.9181897,39.0340476 L1.37281034,39.0340476 C0.564827586,39.0340476 0.0262241379,38.496869 0.0262241379,37.6910238 C0.0262241379,36.8851786 0.564827586,36.348 1.37281034,36.348 L22.9180345,36.348 C23.7260172,36.348 24.2646207,36.8851786 24.2646207,37.6910238 C24.2647759,38.496869 23.7261724,39.0340476 22.9181897,39.0340476" id="Shape"></path>
                    <path d="M22.9181897,26.9469881 L1.37281034,26.9469881 C0.564827586,26.9469881 0.0262241379,26.4098095 0.0262241379,25.6039643 C0.0262241379,24.798119 0.564827586,24.2609405 1.37281034,24.2609405 L22.9180345,24.2609405 C23.7260172,24.2609405 24.2646207,24.798119 24.2646207,25.6039643 C24.2646207,26.4098095 23.7261724,26.9469881 22.9181897,26.9469881" id="Shape"></path>
                    <path d="M22.9181897,14.8597738 L1.37281034,14.8597738 C0.564827586,14.8597738 0.0262241379,14.3225952 0.0262241379,13.51675 C0.0262241379,12.7109048 0.564827586,12.1737262 1.37281034,12.1737262 L22.9180345,12.1737262 C23.7260172,12.1737262 24.2646207,12.7109048 24.2646207,13.51675 C24.2646207,14.3225952 23.7261724,14.8597738 22.9181897,14.8597738" id="Shape"></path>
                    <path d="M22.9181897,2.77255952 L1.37281034,2.77255952 C0.564827586,2.77255952 0.0262241379,2.23538095 0.0262241379,1.42953571 C0.0262241379,0.623690476 0.564827586,0.0865119048 1.37281034,0.0865119048 L22.9180345,0.0865119048 C23.7260172,0.0865119048 24.2646207,0.623690476 24.2646207,1.42953571 C24.2646207,2.23538095 23.7261724,2.77255952 22.9181897,2.77255952" id="Shape"></path>
                </g>
                <g id="Group" transform="translate(36.310345, 22.750000)" fill="#E00122">
                    <path d="M4.10291379,9.48241667 C3.699,9.48241667 3.42962069,9.34808333 3.16024138,9.07957143 L0.467068966,6.39352381 C-0.0715344828,5.85634524 -0.0715344828,5.0505 0.467068966,4.51332143 C1.00567241,3.97614286 1.81365517,3.97614286 2.35225862,4.51332143 L5.04543103,7.19936905 C5.58403448,7.73654762 5.58403448,8.54239286 5.04543103,9.07957143 C4.7762069,9.34808333 4.50682759,9.48241667 4.10291379,9.48241667" id="Shape"></path>
                    <path d="M4.10291379,9.48241667 C3.83353448,9.48241667 3.56431034,9.34808333 3.29493103,9.21375 C2.75632759,8.81090476 2.62163793,7.87072619 3.02555172,7.33354762 L8.41189655,0.618428571 C8.81581034,0.08125 9.75848276,-0.0530833333 10.2970862,0.349761905 C10.8356897,0.752607143 10.9703793,1.69278571 10.5664655,2.22996429 L5.18012069,8.94508333 C4.91074138,9.34808333 4.50682759,9.48241667 4.10291379,9.48241667" id="Shape"></path>
                    <path d="M4.10291379,21.569631 C3.699,21.569631 3.42962069,21.4352976 3.16024138,21.1667857 L0.467068966,18.4807381 C-0.0715344828,17.9435595 -0.0715344828,17.1377143 0.467068966,16.6005357 C1.00567241,16.0633571 1.81365517,16.0633571 2.35225862,16.6005357 L5.04543103,19.2865833 C5.58403448,19.8237619 5.58403448,20.6296071 5.04543103,21.1667857 C4.7762069,21.4352976 4.50682759,21.569631 4.10291379,21.569631" id="Shape"></path>
                    <path d="M4.10291379,21.569631 C3.83353448,21.569631 3.56431034,21.4352976 3.29493103,21.3009643 C2.75632759,20.898119 2.62163793,19.9579405 3.02555172,19.4207619 L8.41189655,12.7056429 C8.81581034,12.1684643 9.75848276,12.034131 10.2970862,12.4369762 C10.8356897,12.8398214 10.9703793,13.78 10.5664655,14.3171786 L5.18012069,21.0322976 C4.91074138,21.4352976 4.50682759,21.569631 4.10291379,21.569631" id="Shape"></path>
                    <path d="M4.10291379,33.6568452 C3.699,33.6568452 3.42962069,33.5225119 3.16024138,33.254 L0.467068966,30.5679524 C-0.0715344828,30.0307738 -0.0715344828,29.2249286 0.467068966,28.68775 C1.00567241,28.1505714 1.81365517,28.1505714 2.35225862,28.68775 L5.04543103,31.3737976 C5.58403448,31.9109762 5.58403448,32.7168214 5.04543103,33.254 C4.7762069,33.5225119 4.50682759,33.6568452 4.10291379,33.6568452" id="Shape"></path>
                    <path d="M4.10291379,33.6568452 C3.83353448,33.6568452 3.56431034,33.5225119 3.29493103,33.3881786 C2.75632759,32.9853333 2.62163793,32.0451548 3.02555172,31.5079762 L8.41189655,24.7928571 C8.81581034,24.2556786 9.75848276,24.1213452 10.2970862,24.5241905 C10.8356897,24.9270357 10.9703793,25.8672143 10.5664655,26.4043929 L5.18012069,33.1195119 C4.91074138,33.5225119 4.50682759,33.6568452 4.10291379,33.6568452" id="Shape"></path>
                    <path d="M4.10291379,45.7439048 C3.699,45.7439048 3.42962069,45.6095714 3.16024138,45.3410595 L0.467068966,42.6550119 C-0.0715344828,42.1178333 -0.0715344828,41.3119881 0.467068966,40.7748095 C1.00567241,40.237631 1.81365517,40.237631 2.35225862,40.7748095 L5.04543103,43.4608571 C5.58403448,43.9980357 5.58403448,44.803881 5.04543103,45.3410595 C4.7762069,45.6095714 4.50682759,45.7439048 4.10291379,45.7439048" id="Shape"></path>
                    <path d="M4.10291379,45.7439048 C3.83353448,45.7439048 3.56431034,45.6095714 3.29493103,45.4752381 C2.75632759,45.0723929 2.62163793,44.1322143 3.02555172,43.5950357 L8.41189655,36.8799167 C8.81581034,36.3427381 9.75848276,36.2084048 10.2970862,36.61125 C10.8356897,37.0140952 10.9703793,37.9542738 10.5664655,38.4914524 L5.18012069,45.2065714 C4.91074138,45.6095714 4.50682759,45.7439048 4.10291379,45.7439048" id="Shape"></path>
                </g>
            </g>
        </g>
    </g>
</svg>