<?xml version="1.0" encoding="UTF-8" standalone="no"?>
<svg width="120px" height="120px" viewBox="0 0 120 120" version="1.1" xmlns="http://www.w3.org/2000/svg" xmlns:xlink="http://www.w3.org/1999/xlink">
    <!-- Generator: Sketch 43.1 (39012) - http://www.bohemiancoding.com/sketch -->
    <title>OtherTools</title>
    <desc>Created with Sketch.</desc>
    <defs></defs>
    <g id="Tiles" stroke="none" stroke-width="1" fill="none" fill-rule="evenodd">
        <g id="OtherTools" fill-rule="nonzero">
            <g id="tools" transform="translate(20.000000, 20.000000)">
                <ellipse id="Oval" fill="#000000" cx="40.5" cy="40" rx="40.5" ry="40"></ellipse>
                <path d="M75.4138477,46.8965625 L75.4138477,71.7242188 C75.4092598,73.2459375 74.1615117,74.4784375 72.6207715,74.4828125 L8.37938672,74.4828125 C6.83864648,74.4782813 5.59074023,73.2459375 5.58631055,71.7242188 L5.58631055,46.8965625 L36.3104648,46.8965625 L36.3104648,53.793125 C36.3150527,55.3148438 37.5628008,56.5473438 39.103541,56.5517188 L41.8966172,56.5517188 C43.4373574,56.5471875 44.6852637,55.3148438 44.6896934,53.793125 L44.6896934,46.8965625 L75.4138477,46.8965625 Z" id="Shape" fill="#E00122"></path>
                <path d="M72.6206133,6.8965625 L72.6206133,40 L67.0344609,40 L67.0344609,11.0345312 L13.9655391,11.0345312 L13.9655391,40 L8.37938672,40 L8.37938672,6.8965625 C8.38175977,6.13578125 9.00555469,5.51953125 9.77600391,5.5171875 L71.2243125,5.5171875 C71.9944453,5.51953125 72.6183984,6.13578125 72.6206133,6.8965625 Z" id="Shape" fill="#C03A2B"></path>
                <path d="M67.0344609,11.1723438 L67.0344609,40 L47.2453066,40 L44.4522305,37.2414063 L50.4713848,31.2965625 C50.9486836,30.8490625 51.6713555,30.7754688 52.2310781,31.1171875 C53.8697461,32.03625 55.9282852,31.759375 57.2586152,30.44125 L60.2192285,27.5171875 C61.8531504,25.9017188 61.8531504,23.284375 60.2192285,21.6689063 L57.2586152,24.5929688 C56.1671719,25.6709375 54.3978281,25.6709375 53.3063848,24.5929688 C52.2149414,23.515 52.2149414,21.7675 53.3063848,20.6895313 L56.2671562,17.7654688 C54.6314941,16.1515625 51.9814336,16.1515625 50.3457715,17.7654688 L47.3851582,20.6895313 C46.0505566,22.0034375 45.7703789,24.0365625 46.7007715,25.655 C47.0469199,26.2078125 46.972248,26.9215625 46.5191543,27.3929688 L40.5,33.3379688 L34.4808457,27.393125 C34.027752,26.9217188 33.9532383,26.2079688 34.2992285,25.6551563 C35.2297793,24.0367188 34.9496016,22.0035938 33.6148418,20.6896875 L30.6542285,17.765625 C29.0185664,16.1517188 26.3685059,16.1517188 24.7328438,17.765625 L27.693457,20.6896875 C28.7849004,21.7676563 28.7849004,23.5151563 27.693457,24.593125 C26.6020137,25.6710938 24.8326699,25.6710938 23.7412266,24.593125 L20.7806133,21.6690625 C19.1466914,23.2845313 19.1466914,25.901875 20.7806133,27.5173438 L23.7412266,30.4414063 C25.0715566,31.7595313 27.1300957,32.03625 28.7687637,31.1173438 C29.3284863,30.7754688 30.0511582,30.8490625 30.528457,31.2967188 L36.5476113,37.2415625 L33.7546934,40 L13.9655391,40 L13.9655391,11.1723438 C14.0055645,11.1154688 14.0580879,11.0682813 14.1191543,11.034375 L66.8808457,11.034375 C66.9419121,11.0684375 66.9944355,11.115625 67.0344609,11.1723438 Z" id="Shape" fill="#464F5D"></path>
                <path d="M40.5,33.3379687 L36.5477695,37.2414062 L30.5286152,31.2965625 C30.0513164,30.8490625 29.3286445,30.7754687 28.7689219,31.1171875 C27.1302539,32.03625 25.0717148,31.759375 23.7413848,30.44125 L20.7807715,27.5171875 C19.1468496,25.9017187 19.1468496,23.284375 20.7807715,21.6689062 L23.7413848,24.5929687 C24.8328281,25.6709375 26.6021719,25.6709375 27.6936152,24.5929687 C28.7850586,23.515 28.7850586,21.7675 27.6936152,20.6895312 L24.733002,17.7654687 C26.3686641,16.1515625 29.0187246,16.1515625 30.6543867,17.7654687 L33.615,20.6895312 C34.9496016,22.0034375 35.2297793,24.0365625 34.2993867,25.655 C33.9532383,26.2078125 34.0279102,26.9215625 34.4810039,27.3929687 L40.5,33.3379687 Z" id="Shape" fill="#E6E7E8"></path>
                <path d="M60.2193867,27.5171875 L57.2587734,30.44125 C55.9284434,31.759375 53.8699043,32.0360938 52.2312363,31.1171875 C51.6715137,30.7753125 50.9488418,30.8489063 50.471543,31.2965625 L41.6591543,40 L33.7546934,40 L46.5191543,27.393125 C46.972248,26.9217188 47.0467617,26.2079688 46.7007715,25.6551563 C45.7702207,24.0367188 46.0503984,22.0035938 47.3851582,20.6896875 L50.3457715,17.765625 C51.9814336,16.1517188 54.6314941,16.1517188 56.2671563,17.765625 L53.3063848,20.6896875 C52.2149414,21.7676563 52.2149414,23.5151563 53.3063848,24.593125 C54.3978281,25.6710938 56.1671719,25.6710938 57.2586152,24.593125 L60.2192285,21.6690625 C61.8531504,23.284375 61.8531504,25.9017188 60.2193867,27.5171875 Z" id="Shape" fill="#95A5A5"></path>
                <path d="M44.6896934,46.8965625 L44.6896934,53.793125 C44.6851055,55.3148437 43.4373574,56.5473437 41.8966172,56.5517187 L39.103541,56.5517187 C37.5628008,56.5471875 36.3148945,55.3148437 36.3104648,53.793125 L36.3104648,46.8965625 L44.6896934,46.8965625 Z" id="Shape" fill="#BDC3C7"></path>
                <polygon id="Shape" fill="#E6E7E8" points="47.2453066 40 41.6591543 40 44.4522305 37.2414062"></polygon>
                <rect id="Rectangle-path" fill="#B10011" x="5.58615234" y="40" width="69.8275371" height="6.8965625"></rect>
            </g>
        </g>
    </g>
</svg>