<?xml version="1.0" encoding="UTF-8" standalone="no"?>
<svg width="120px" height="120px" viewBox="0 0 120 120" version="1.1" xmlns="http://www.w3.org/2000/svg" xmlns:xlink="http://www.w3.org/1999/xlink">
    <!-- Generator: Sketch 43.1 (39012) - http://www.bohemiancoding.com/sketch -->
    <title>Quick Links and Helpful Contacts</title>
    <desc>Created with Sketch.</desc>
    <defs></defs>
    <g id="Tiles" stroke="none" stroke-width="1" fill="none" fill-rule="evenodd">
        <g id="Quick-Links-and-Helpful-Contacts" fill-rule="nonzero">
            <g id="220976" transform="translate(28.000000, 22.000000)">
                <path d="M63.9895635,16.0620221 L50.6708106,16.0620221 C49.205717,16.0620221 48.00706,14.8574013 48.00706,13.3850184 L48.00706,0 L63.9895635,16.0620221 Z" id="Shape" fill="#D4D0BA"></path>
                <path d="M63.9895635,16.0620221 L50.6708106,16.0620221 C49.205717,16.0620221 48.00706,14.8574013 48.00706,13.3850184 L48.00706,0 L10.7148585,0 C9.24976499,0 8.05110791,1.20462081 8.05110791,2.67700369 L8.05110791,66.9247837 C8.05110791,68.3971666 9.24976499,69.6017874 10.7148585,69.6017874 L61.3259664,69.6017874 C62.79106,69.6017874 63.989717,68.3971666 63.989717,66.9247837 L63.989717,16.0620221 L63.9895635,16.0620221 Z" id="Shape" fill="#EFEADD"></path>
                <g id="Group" transform="translate(0.000000, 8.020523)" fill="#D4D0BA">
                    <path d="M10.7148585,61.5812647 C9.24976499,61.5812647 8.05110791,60.3766439 8.05110791,58.904261 L8.05110791,0.2780962 L6.71923261,0.010334135 L2.72360671,0.010334135 C1.25851319,0.010334135 0.0598561151,1.21495495 0.0598561151,2.68733782 L0.0598561151,66.9351178 C0.0598561151,68.4075007 1.25851319,69.6121215 2.72360671,69.6121215 L53.3347146,69.6121215 C54.7998082,69.6121215 55.9984652,68.4075007 55.9984652,66.9351178 L55.9984652,62.9196123 L55.865247,61.5811105 L10.7148585,61.5811105 L10.7148585,61.5812647 Z" id="Shape"></path>
                    <path d="M41.3478369,9.38000128 L17.3740815,9.38000128 C16.5749257,9.38000128 16.0422062,8.84463139 16.0422062,8.04149944 C16.0422062,7.23836748 16.5749257,6.70299759 17.3740815,6.70299759 L41.3476835,6.70299759 C42.1468393,6.70299759 42.6795588,7.23836748 42.6795588,8.04149944 C42.6797122,8.84447715 42.1469928,9.38000128 41.3478369,9.38000128" id="Shape"></path>
                    <path d="M57.3301871,17.4108581 L17.3740815,17.4108581 C16.5749257,17.4108581 16.0422062,16.8754882 16.0422062,16.0723563 C16.0422062,15.2692243 16.5749257,14.7338544 17.3740815,14.7338544 L57.3301871,14.7338544 C58.1293429,14.7338544 58.6620624,15.2692243 58.6620624,16.0723563 C58.6620624,16.8754882 58.1293429,17.4108581 57.3301871,17.4108581" id="Shape"></path>
                    <path d="M57.3301871,25.4418692 L17.3740815,25.4418692 C16.5749257,25.4418692 16.0422062,24.9064993 16.0422062,24.1033673 C16.0422062,23.3002354 16.5749257,22.7648655 17.3740815,22.7648655 L57.3301871,22.7648655 C58.1293429,22.7648655 58.6620624,23.3002354 58.6620624,24.1033673 C58.6620624,24.9064993 58.1293429,25.4418692 57.3301871,25.4418692" id="Shape"></path>
                    <path d="M57.3301871,33.4728802 L17.3740815,33.4728802 C16.5749257,33.4728802 16.0422062,32.9375103 16.0422062,32.1343784 C16.0422062,31.3312464 16.5749257,30.7958765 17.3740815,30.7958765 L57.3301871,30.7958765 C58.1293429,30.7958765 58.6620624,31.3312464 58.6620624,32.1343784 C58.6620624,32.9375103 58.1293429,33.4728802 57.3301871,33.4728802" id="Shape"></path>
                    <path d="M57.3301871,41.5038913 L17.3740815,41.5038913 C16.5749257,41.5038913 16.0422062,40.9685214 16.0422062,40.1653895 C16.0422062,39.3622575 16.5749257,38.8268876 17.3740815,38.8268876 L57.3301871,38.8268876 C58.1293429,38.8268876 58.6620624,39.3622575 58.6620624,40.1653895 C58.6620624,40.9685214 58.1293429,41.5038913 57.3301871,41.5038913" id="Shape"></path>
                    <path d="M57.3301871,49.5349024 L17.3740815,49.5349024 C16.5749257,49.5349024 16.0422062,48.9995325 16.0422062,48.1964005 C16.0422062,47.3932686 16.5749257,46.8578987 17.3740815,46.8578987 L57.3301871,46.8578987 C58.1293429,46.8578987 58.6620624,47.3932686 58.6620624,48.1964005 C58.6620624,48.9995325 58.1293429,49.5349024 57.3301871,49.5349024" id="Shape"></path>
                </g>
            </g>
            <g id="230336" transform="translate(63.000000, 12.000000)">
                <path d="M21.8532613,8.23621218 C21.2572731,8.83220039 18.9622711,7.50364244 16.7271749,5.26854617 C14.4920786,3.0334499 13.1635206,0.738447937 13.7595088,0.142459725 C14.3554971,-0.453528487 16.650499,0.87502947 18.8855953,3.11012574 C21.1206916,5.345222 22.4492495,7.64026719 21.8532613,8.23621218" id="Shape" fill="#A31C09"></path>
                <polygon id="Shape" fill="#D9DBE8" points="0 21.9956778 4.85633792 14.9809627 7.01471513 17.1393831"></polygon>
                <path d="M16.7272181,5.26850295 C14.4921218,3.03340668 13.1635639,0.738404715 13.7595521,0.142416503 C11.5988409,2.3031277 12.0639528,5.46153242 14.2990491,7.69662868 C16.5341454,9.93172495 19.5579136,10.5315167 21.7181925,8.3711945 L21.68422,8.33570923 C20.9032417,8.61998035 18.7913713,7.33265619 16.7272181,5.26850295" id="Shape" fill="#E00122"></path>
                <path d="M14.7853831,12.0665894 L17.3184519,9.53352063 C16.2554499,9.24276621 15.2115521,8.60904519 14.2992652,7.69675835 C13.3865894,6.78408251 12.775387,5.71766601 12.5113438,4.62838507 L9.92982318,7.20955992 L7.82409037,9.31529273 C8.08852259,10.4050059 8.80008644,11.3706719 9.71276228,12.2829587 C10.6250491,13.1956346 11.6174263,13.8808762 12.6804283,14.1716306 L14.7853831,12.0665894 Z" id="SVGCleanerId_0" fill="#A31C09"></path>
                <path d="M14.7853831,12.0665894 L17.3184519,9.53352063 C16.2554499,9.24276621 15.2115521,8.60904519 14.2992652,7.69675835 C13.3865894,6.78408251 12.775387,5.71766601 12.5113438,4.62838507 L9.92982318,7.20955992 L7.82409037,9.31529273 C8.08852259,10.4050059 8.80008644,11.3706719 9.71276228,12.2829587 C10.6250491,13.1956346 11.6174263,13.8808762 12.6804283,14.1716306 L14.7853831,12.0665894 Z" id="SVGCleanerId_0_1_" fill="#A31C09"></path>
                <path d="M13.4560472,16.8556306 C13.5575324,15.9269627 13.3865894,14.9440943 12.9447741,13.9070255 L12.6803418,14.1718035 C11.6173399,13.8807033 10.6249627,13.1954185 9.71267583,12.2831316 C8.8,11.3708448 8.08843615,10.4047898 7.82400393,9.31546562 L8.09375246,9.04571709 L8.08190963,9.03352849 C7.03840079,8.58635363 6.04978389,8.41350884 5.11575639,8.5157721 C3.38009037,8.70499804 2.34647937,10.498668 3.05691945,12.0939057 C3.5975835,13.3072338 4.59415324,14.7189509 5.92348919,16.0482436 C7.25239293,17.3771906 8.66449902,18.3741493 9.87782711,18.9144244 C11.4727623,19.6248644 13.2664322,18.5912534 13.4560472,16.8556306" id="Shape" fill="#E00122"></path>
            </g>
        </g>
    </g>
</svg>