<svg width="41" height="40" viewBox="0 0 41 40" fill="none" xmlns="http://www.w3.org/2000/svg">
<path d="M8.34576 21.6667L26.9624 21.6667L18.8291 29.8C18.1791 30.45 18.1791 31.5167 18.8291 32.1667C18.9833 32.3212 19.1664 32.4438 19.3681 32.5274C19.5697 32.611 19.7858 32.6541 20.0041 32.6541C20.2224 32.6541 20.4385 32.611 20.6401 32.5274C20.8418 32.4438 21.0249 32.3212 21.1791 32.1667L32.1624 21.1834C32.3169 21.0292 32.4395 20.846 32.5232 20.6444C32.6068 20.4428 32.6498 20.2266 32.6498 20.0084C32.6498 19.7901 32.6068 19.5739 32.5232 19.3723C32.4395 19.1707 32.3169 18.9875 32.1624 18.8334L21.1958 7.83335C21.0415 7.67905 20.8583 7.55665 20.6567 7.47314C20.4551 7.38963 20.239 7.34665 20.0208 7.34665C19.8025 7.34665 19.5865 7.38963 19.3849 7.47314C19.1833 7.55665 19.0001 7.67905 18.8458 7.83335C18.6915 7.98765 18.5691 8.17084 18.4856 8.37244C18.402 8.57405 18.3591 8.79013 18.3591 9.00835C18.3591 9.22657 18.402 9.44265 18.4856 9.64426C18.5691 9.84586 18.6915 10.029 18.8458 10.1833L26.9624 18.3334L8.34576 18.3334C7.42909 18.3334 6.67909 19.0834 6.67909 20C6.67909 20.9167 7.42909 21.6667 8.34576 21.6667Z" fill="white"/>
</svg>