<svg width="41" height="40" viewBox="0 0 41 40" fill="none" xmlns="http://www.w3.org/2000/svg">
<path d="M20.002 36.6667C21.8354 36.6667 23.3354 35.1667 23.3354 33.3334H16.6687C16.6687 34.2174 17.0199 35.0653 17.645 35.6904C18.2701 36.3155 19.118 36.6667 20.002 36.6667ZM30.002 26.6667V18.3334C30.002 13.2167 27.2687 8.93335 22.502 7.80002V6.66669C22.502 5.28335 21.3854 4.16669 20.002 4.16669C18.6187 4.16669 17.502 5.28335 17.502 6.66669V7.80002C12.7187 8.93335 10.002 13.2 10.002 18.3334V26.6667L7.85204 28.8167C6.80204 29.8667 7.53537 31.6667 9.01871 31.6667H30.9687C32.452 31.6667 33.202 29.8667 32.152 28.8167L30.002 26.6667Z" fill="black"/>
</svg>
