<?xml version="1.0" encoding="utf-8"?>
<!-- Generator: Adobe Illustrator 15.0.0, SVG Export Plug-In . SVG Version: 6.00 Build 0)  -->

<svg version="1.1" id="Layer_1" xmlns="http://www.w3.org/2000/svg" xmlns:xlink="http://www.w3.org/1999/xlink" x="0px" y="0px"
	 width="80px" height="80px" viewBox="0 0 80 80" enable-background="new 0 0 80 80" xml:space="preserve">
<path fill="#F39C12" d="M2.2,71.3h75.4l0.6-0.6c1.5-1.5,1.5-4.1,0-5.6L42.7,9c-1.5-1.5-4.1-1.5-5.6,0L1.6,65c-1.5,1.5-1.5,4.1,0,5.6
	L2.2,71.3z"/>
<g>
	<g>
		<path fill="#333333" d="M45.4,60.7c0,1.5-0.5,2.8-1.6,3.9c-1.1,1.1-2.4,1.6-3.9,1.6c-1.5,0-2.8-0.5-3.9-1.6
			c-1.1-1.1-1.6-2.4-1.6-3.9c0-1.5,0.5-2.8,1.6-3.9c1.1-1.1,2.4-1.6,3.9-1.6c1.5,0,2.8,0.5,3.9,1.6C44.9,57.9,45.4,59.2,45.4,60.7z
			 M45.4,25.5c0,1-0.4,4.2-1.1,9.8c-0.8,5.6-1.4,10.9-2,16.1h-4.8c-0.5-5.2-1.1-10.6-1.9-16.1c-0.8-5.6-1.1-8.8-1.1-9.8
			c0-1.1,0.4-2,1.2-2.8c0.8-0.8,3-1.1,4.3-1.1c1.3,0,3.4,0.4,4.3,1.1C45,23.4,45.4,24.4,45.4,25.5z"/>
	</g>
</g>
</svg>
