<svg width="40" height="40" viewBox="0 0 40 40" fill="none" xmlns="http://www.w3.org/2000/svg">
<path d="M32.5002 20C32.5002 19.6167 32.4835 19.25 32.4502 18.8667L35.5502 16.5167C36.2168 16.0167 36.4002 15.0833 35.9835 14.35L32.8668 8.96668C32.667 8.61365 32.3438 8.34691 31.9592 8.21771C31.5747 8.08851 31.156 8.10594 30.7835 8.26668L27.2002 9.78334C26.5835 9.35001 25.9335 8.96668 25.2502 8.65001L24.7668 4.80001C24.6668 3.96668 23.9502 3.33334 23.1168 3.33334H16.9002C16.0502 3.33334 15.3335 3.96668 15.2335 4.80001L14.7502 8.65001C14.0668 8.96668 13.4168 9.35001 12.8002 9.78334L9.21684 8.26668C8.45017 7.93334 7.55017 8.23334 7.13351 8.96668L4.01684 14.3667C3.60017 15.1 3.78351 16.0167 4.45017 16.5333L7.55017 18.8833C7.48108 19.6318 7.48108 20.3849 7.55017 21.1333L4.45017 23.4833C3.78351 23.9833 3.60017 24.9167 4.01684 25.65L7.13351 31.0333C7.55017 31.7667 8.45017 32.0667 9.21684 31.7333L12.8002 30.2167C13.4168 30.65 14.0668 31.0333 14.7502 31.35L15.2335 35.2C15.3335 36.0333 16.0502 36.6667 16.8835 36.6667H23.1002C23.9335 36.6667 24.6502 36.0333 24.7502 35.2L25.2335 31.35C25.9168 31.0333 26.5668 30.65 27.1835 30.2167L30.7668 31.7333C31.5335 32.0667 32.4335 31.7667 32.8502 31.0333L35.9668 25.65C36.3835 24.9167 36.2002 24 35.5335 23.4833L32.4335 21.1333C32.4835 20.75 32.5002 20.3833 32.5002 20V20ZM20.0668 25.8333C16.8502 25.8333 14.2335 23.2167 14.2335 20C14.2335 16.7833 16.8502 14.1667 20.0668 14.1667C23.2835 14.1667 25.9002 16.7833 25.9002 20C25.9002 23.2167 23.2835 25.8333 20.0668 25.8333Z" fill="black"/>
</svg>
