<?xml version="1.0" encoding="utf-8"?>
<!-- Generator: Adobe Illustrator 15.0.0, SVG Export Plug-In . SVG Version: 6.00 Build 0)  -->

<svg version="1.1" id="Layer_1" xmlns="http://www.w3.org/2000/svg" xmlns:xlink="http://www.w3.org/1999/xlink" x="0px" y="0px"
	 width="14px" height="14px" viewBox="0 0 14 14" enable-background="new 0 0 14 14" xml:space="preserve">
<polygon fill="#5C5C5C" points="14,6.9 14,0 7,0 "/>
<polygon fill="#5C5C5C" points="11,4 11,3 10,3 10,2 9,2 9,3 9,4 8,4 8,5 7,5 7,6 7,7 8,7 9,7 9,6 10,6 10,5 11,5 12,5 12,4 "/>
<polygon fill="#5C5C5C" points="0,7.1 0,14 7,14 "/>
<polygon fill="#5C5C5C" points="3,10 3,11 4,11 4,12 5,12 5,11 5,10 6,10 6,9 7,9 7,8 7,7 6,7 5,7 5,8 4,8 4,9 3,9 2,9 2,10 "/>
</svg>
