<?xml version="1.0" encoding="UTF-8" standalone="no"?>
<svg width="120px" height="120px" viewBox="0 0 120 120" version="1.1" xmlns="http://www.w3.org/2000/svg" xmlns:xlink="http://www.w3.org/1999/xlink">
    <!-- Generator: Sketch 43.1 (39012) - http://www.bohemiancoding.com/sketch -->
    <title>My Academics</title>
    <desc>Created with Sketch.</desc>
    <defs></defs>
    <g id="Tiles" stroke="none" stroke-width="1" fill="none" fill-rule="evenodd">
        <g id="My-Academics" fill-rule="nonzero">
            <g id="courses" transform="translate(16.000000, 25.000000)">
                <polygon id="Shape" fill="#8C5D37" points="0 70.4048587 85.4532967 70.4048587 85.4532967 61.4717285 0 61.4717285"></polygon>
                <path d="M47.1466867,61.4718971 L4.42003839,61.4718971 L6.11875647,58.6102799 C7.7939415,55.7889718 7.7939415,52.2663845 6.11875647,49.4449078 L4.42003839,46.5832906 L47.1466867,46.5832906 C51.2145641,46.5832906 54.5133618,49.9168124 54.5133618,54.0275095 C54.5133618,58.1383753 51.2145641,61.4718971 47.1466867,61.4718971" id="Shape" fill="#ECBA16"></path>
                <path d="M47.1466867,55.5164208 L14.73335,55.5164208 C13.9185395,55.5164208 13.2599483,54.8493791 13.2599483,54.0275095 C13.2599483,53.20564 13.9185395,52.5385983 14.73335,52.5385983 L47.1466867,52.5385983 C47.9614973,52.5385983 48.6200885,53.20564 48.6200885,54.0275095 C48.6199216,54.8495478 47.9613304,55.5164208 47.1466867,55.5164208" id="Shape" fill="#ED8A19"></path>
                <path d="M42.7266484,46.5834592 L0,46.5834592 L1.69871807,43.7218419 C3.37390311,40.9005339 3.37390311,37.3779466 1.69871807,34.5564699 L0,31.6950213 L42.7266484,31.6950213 C46.7945257,31.6950213 50.0933234,35.0285431 50.0933234,39.1392402 C50.0933234,43.2499374 46.7945257,46.5834592 42.7266484,46.5834592" id="Shape" fill="#A2D672"></path>
                <path d="M42.7266484,40.6281515 L10.3133116,40.6281515 C9.49850111,40.6281515 8.83990988,39.9611098 8.83990988,39.1392402 C8.83990988,38.3173707 9.49850111,37.650329 10.3133116,37.650329 L42.7266484,37.650329 C43.5414589,37.650329 44.2000501,38.3173707 44.2000501,39.1392402 C44.2000501,39.9611098 43.5414589,40.6281515 42.7266484,40.6281515" id="Shape" fill="#88C057"></path>
                <path d="M47.1466867,31.6950213 L4.42003839,31.6950213 L6.11875647,28.833404 C7.7939415,26.012096 7.7939415,22.4895087 6.11875647,19.668032 L4.42003839,16.8064147 L47.1466867,16.8064147 C51.2145641,16.8064147 54.5133618,20.1399366 54.5133618,24.2506337 C54.5133618,28.3613308 51.2145641,31.6950213 47.1466867,31.6950213" id="Shape" fill="#25B99A"></path>
                <polygon id="Shape" fill="#E00122" points="63.5917731 0.0941110649 78.8451866 57.6184032 64.6128733 61.4715598 49.3609619 3.94726768"></polygon>
                <path d="M47.1466867,25.7397136 L14.73335,25.7397136 C13.9185395,25.7397136 13.2599483,25.0726719 13.2599483,24.2508023 C13.2599483,23.4289327 13.9185395,22.7618911 14.73335,22.7618911 L47.1466867,22.7618911 C47.9614973,22.7618911 48.6200885,23.4289327 48.6200885,24.2508023 C48.6199216,25.0726719 47.9613304,25.7397136 47.1466867,25.7397136" id="Shape" fill="#199172"></path>
                <g id="Group" transform="translate(51.572400, 8.601549)" fill="#B12621">
                    <polygon id="Shape" points="15.8327267 5.87350867 1.60174861 9.72666528 0.0754392385 3.97374695 14.3077526 0.120590343"></polygon>
                    <polygon id="Shape" points="24.9844076 40.3881514 10.7534295 44.241308 9.22712013 38.4883897 23.4594335 34.6352331"></polygon>
                    <path d="M14.8166336,32.2998282 C14.1668881,32.2998282 13.5702172,31.8606433 13.3948043,31.1951195 L8.82004867,13.9378824 C8.60941964,13.1428295 9.07640856,12.3270316 9.86167762,12.1140168 C10.6469467,11.8996527 11.4557488,12.3730752 11.6650426,13.1666102 L16.2411334,30.4251965 C16.4502603,31.2187316 15.9847735,32.0360474 15.1995044,32.2475443 C15.0716583,32.2834684 14.9434784,32.2998282 14.8166336,32.2998282" id="Shape"></path>
                </g>
            </g>
            <g id="cap" transform="translate(54.000000, 49.000000)">
                <g id="Group" transform="translate(-0.000000, 0.000000)">
                    <path d="M1.23431962,37.1835382 L4.02991204,29.9887669 L6.84867079,37.2445053 C7.63643968,39.2728692 6.3388977,41.5569817 4.39863308,41.5569817 L3.71859326,41.5569817 C1.75116813,41.5571122 0.435481108,39.2406233 1.23431962,37.1835382" id="Shape" fill="#000000"></path>
                    <polygon id="Shape" fill="#4A4A4A" points="58.429331 18.3770787 29.2146655 34.599029 0 18.3770787 29.2146655 0.0255879078"></polygon>
                </g>
                <g id="Group" transform="translate(2.967114, 12.663403)" fill="#000000">
                    <path d="M1.06245522,20.6960482 C0.505322417,20.6960482 0.0550057374,20.1808957 0.0550057374,19.5435479 L0.0550057374,8.01906754 C0.0550057374,7.43589824 0.435823467,6.94385321 0.942515322,6.87466142 L26.1276111,3.4172912 C26.6856569,3.34470509 27.1813933,3.79419064 27.247811,4.42448869 C27.3143428,5.05713666 26.9204013,5.62999247 26.3673768,5.7059729 L2.0699047,9.04127835 L2.0699047,19.5435479 C2.0699047,20.1808957 1.61958802,20.6960482 1.06245522,20.6960482" id="Shape"></path>
                    <path d="M26.247551,21.9351034 L8.11425923,11.8661312 L8.11425923,21.6792244 C8.11425923,24.1996333 9.51359606,26.5033283 11.4839883,27.6305017 L13.4806281,28.7725579 C21.5176282,33.3696345 30.9772456,33.3696345 39.0142458,28.7725579 L41.0108855,27.6305017 C42.9813919,26.5034588 44.3806146,24.1996333 44.3806146,21.6792244 L44.3806146,11.8661312 L26.247551,21.9351034 Z" id="Shape"></path>
                    <path d="M30.2771207,4.64838289 C30.2771207,7.19411862 28.4728869,9.25812281 26.247551,9.25812281 C24.0222152,9.25812281 22.2179814,7.19411862 22.2179814,4.64838289 C22.2179814,2.10264716 24.0222152,0.0386429628 26.247551,0.0386429628 C28.4728869,0.0386429628 30.2771207,2.10264716 30.2771207,4.64838289" id="Shape"></path>
                </g>
            </g>
        </g>
    </g>
</svg>