<?xml version="1.0" encoding="UTF-8" standalone="no"?>
<svg width="120px" height="120px" viewBox="0 0 120 120" version="1.1" xmlns="http://www.w3.org/2000/svg" xmlns:xlink="http://www.w3.org/1999/xlink">
    <!-- Generator: Sketch 43.1 (39012) - http://www.bohemiancoding.com/sketch -->
    <title>My Finances</title>
    <desc>Created with Sketch.</desc>
    <defs></defs>
    <g id="Tiles" stroke="none" stroke-width="1" fill="none" fill-rule="evenodd">
        <g id="My-Finances" fill-rule="nonzero">
            <g id="362112" transform="translate(18.000000, 18.000000)">
                <path d="M58.366501,26.52 C58.4528265,27.4403906 58.5068421,28.3694141 58.5068421,29.3103906 C58.5068421,45.4985742 45.4102144,58.6207812 29.2535867,58.6207812 C28.3131189,58.6207812 27.3857407,58.5664941 26.4671442,58.4814941 C27.871384,73.3579883 40.3640643,85 55.5815497,85 C71.7380117,85 84.8348051,71.877793 84.8348051,55.6896094 C84.8348051,40.4438965 73.2138304,27.9268164 58.366501,26.52" id="Shape" fill="#000000"></path>
                <g id="Group" transform="translate(46.393762, 38.017578)" fill="#FFFFFF">
                    <path d="M9.18729045,36.7243164 C8.37838207,36.7243164 7.7245614,36.0692187 7.7245614,35.2587305 L7.7245614,3.01733398 C7.7245614,2.2068457 8.37838207,1.55174805 9.18729045,1.55174805 C9.99619883,1.55174805 10.6500195,2.2068457 10.6500195,3.01733398 L10.6500195,35.2587305 C10.6500195,36.0692188 9.99619883,36.7243164 9.18729045,36.7243164" id="Shape"></path>
                    <path d="M16.5006043,11.8105176 C15.6916959,11.8105176 15.0378752,11.1554199 15.0378752,10.3449316 L15.0378752,1.55174805 C15.0378752,0.741259766 15.6916959,0.0861621094 16.5006043,0.0861621094 C17.3095127,0.0861621094 17.9633333,0.741259766 17.9633333,1.55174805 L17.9633333,10.3449316 C17.9633333,11.1554199 17.3095127,11.8105176 16.5006043,11.8105176" id="Shape"></path>
                    <path d="M1.87397661,35.2587305 C1.06506823,35.2587305 0.411247563,34.6036328 0.411247563,33.7931445 L0.411247563,24.9999609 C0.411247563,24.1894727 1.06506823,23.534375 1.87397661,23.534375 C2.68288499,23.534375 3.33670565,24.1894727 3.33670565,24.9999609 L3.33670565,33.7931445 C3.33670565,34.6036328 2.68288499,35.2587305 1.87397661,35.2587305" id="Shape"></path>
                    <path d="M16.5020955,7.41392578 C16.0721248,7.41392578 15.646462,7.22483398 15.3568324,6.86142578 C14.2773489,5.50574219 11.8376998,4.57223633 9.13907407,4.48142578 C8.33165692,4.4550293 7.69838207,3.77801758 7.72621832,2.96902344 C7.75405458,2.1600293 8.45178363,1.5225293 9.23567251,1.5534082 C12.8616764,1.67210937 16.0048538,2.975 17.6445419,5.03541992 C18.1477485,5.66860352 18.0453509,6.59032227 17.4119103,7.09451172 C17.1428265,7.30983398 16.8208869,7.41392578 16.5020955,7.41392578" id="Shape"></path>
                    <path d="M9.18729045,33.7931445 C5.57305068,33.7931445 2.49117934,32.5239551 0.730204678,30.3096387 C0.226998051,29.6764551 0.329395712,28.7547363 0.962836257,28.2505469 C1.59478558,27.7463574 2.51619883,27.8504492 3.01791423,28.4836328 C4.20261209,29.9741211 6.50921053,30.8621387 9.18745614,30.8621387 C12.7037719,30.8621387 16.50077,28.6214258 16.50077,25.000127 C16.50077,21.4932129 12.7198441,19.1381152 9.18745614,19.1381152 C5.57321637,19.1381152 2.07744639,17.3956152 0.279853801,14.6975293 C-0.167680312,14.024834 0.0135867446,13.1147363 0.686461988,12.664834 C1.35486355,12.2149316 2.26467836,12.3967187 2.7137037,13.0707422 C3.98191033,14.9759375 6.52395712,16.2069434 9.18745614,16.2069434 C14.1108285,16.2069434 19.4260624,19.5687598 19.4260624,25.000127 C19.4260624,30.4314941 14.1106628,33.7931445 9.18729045,33.7931445" id="Shape"></path>
                </g>
                <path d="M58.506345,29.3107227 C58.506345,13.1225391 45.4097173,0.00033203125 29.2530897,0.00033203125 C13.096462,0.00033203125 0,13.1227051 0,29.3107227 C0,45.4987402 13.0966277,58.6211133 29.2532554,58.6211133 C45.409883,58.6211133 58.506345,45.4989063 58.506345,29.3107227" id="Shape" fill="#E00122"></path>
                <g id="Group" transform="translate(18.888889, 10.126953)" fill="#FFFFFF">
                    <path d="M10.3643665,38.2355566 C9.55545809,38.2355566 8.90163743,37.580459 8.90163743,36.7699707 L8.90163743,1.59756836 C8.90163743,0.787080078 9.55545809,0.131982422 10.3643665,0.131982422 C11.1732749,0.131982422 11.8270955,0.787080078 11.8270955,1.59756836 L11.8270955,36.7699707 C11.8269298,37.580459 11.1731092,38.2355566 10.3643665,38.2355566" id="Shape"></path>
                    <path d="M10.3643665,35.3045508 C6.75012671,35.3045508 3.66825536,34.0353613 1.9072807,31.8210449 C1.40407407,31.1878613 1.50647173,30.2661426 2.13991228,29.7619531 C2.7718616,29.2577637 3.69327485,29.3603613 4.19499025,29.9950391 C5.37968811,31.4855273 7.68628655,32.3735449 10.3645322,32.3735449 C13.880848,32.3735449 17.677846,30.132832 17.677846,26.5115332 C17.677846,23.0046191 13.8969201,20.6495215 10.3645322,20.6495215 C5.44115984,20.6495215 0.125925926,17.2877051 0.125925926,11.8563379 C0.125925926,6.4249707 5.44115984,3.0631543 10.3645322,3.0631543 C14.031462,3.0631543 17.0357895,4.2999707 18.8216179,6.54666016 C19.3248246,7.17984375 19.2224269,8.1015625 18.5889864,8.60575195 C17.957037,9.10994141 17.037115,9.00584961 16.5339084,8.37266602 C15.3140838,6.83834961 13.1229727,5.99416016 10.3643665,5.99416016 C6.83197856,5.99416016 3.05105263,8.34925781 3.05105263,11.8561719 C3.05105263,15.4774707 6.84805068,17.7181836 10.3643665,17.7181836 C15.2877388,17.7181836 20.6029727,21.08 20.6029727,26.5113672 C20.6029727,31.9427344 15.2875731,35.3045508 10.3643665,35.3045508" id="Shape"></path>
                    <path d="M17.6776803,13.3217578 C16.8687719,13.3217578 16.2149513,12.6666602 16.2149513,11.8561719 L16.2149513,3.0631543 C16.2149513,2.25266602 16.8687719,1.59756836 17.6776803,1.59756836 C18.4865887,1.59756836 19.1404094,2.25266602 19.1404094,3.0631543 L19.1404094,11.8563379 C19.1402437,12.6666602 18.486423,13.3217578 17.6776803,13.3217578" id="Shape"></path>
                    <path d="M3.05105263,36.7699707 C2.24214425,36.7699707 1.58832359,36.114873 1.58832359,35.3043848 L1.58832359,26.5112012 C1.58832359,25.7007129 2.24214425,25.0456152 3.05105263,25.0456152 C3.85996101,25.0456152 4.51378168,25.7007129 4.51378168,26.5112012 L4.51378168,35.3043848 C4.51361598,36.114873 3.85979532,36.7699707 3.05105263,36.7699707" id="Shape"></path>
                </g>
            </g>
        </g>
    </g>
</svg>