<?xml version="1.0" encoding="UTF-8"?>
<svg width="120px" height="120px" viewBox="0 0 120 120" version="1.1" xmlns="http://www.w3.org/2000/svg" xmlns:xlink="http://www.w3.org/1999/xlink">
    <!-- Generator: Sketch 43.1 (39012) - http://www.bohemiancoding.com/sketch -->
    <title>Scholarship Universe</title>
    <desc>Created with Sketch.</desc>
    <defs></defs>
    <g id="Tiles" stroke="none" stroke-width="1" fill="none" fill-rule="evenodd">
        <g id="Scholarship-Universe">
            <g id="cap" transform="translate(40.000000, 19.000000)" fill-rule="nonzero">
                <g id="Group">
                    <path d="M1.26306555,38.6109382 L4.12376423,31.1399743 L7.00816874,38.6742458 C7.81428389,40.7804744 6.4865236,43.1522692 4.50107237,43.1522692 L3.80519518,43.1522692 C1.7919509,43.1524048 0.44562298,40.7469906 1.26306555,38.6109382" id="Shape" fill="#000000"></path>
                    <polygon id="Shape" fill="#4A4A4A" points="59.7900854 19.0825372 29.8950427 35.927215 0 19.0825372 29.8950427 0.0265701753"></polygon>
                </g>
                <g id="Group" transform="translate(3.036215, 13.149526)" fill="#000000">
                    <path d="M1.08719862,21.4905271 C0.517090817,21.4905271 0.0562867601,20.955599 0.0562867601,20.2937848 L0.0562867601,8.32690315 C0.0562867601,7.72134716 0.445973313,7.21041354 0.964465459,7.13856562 L26.7360943,3.54847402 C27.3071363,3.47310148 27.8144178,3.93984186 27.8823823,4.59433577 C27.9504636,5.2512698 27.5473476,5.84611637 26.9814438,5.92501353 L2.11811049,9.38835454 L2.11811049,20.2937848 C2.11811049,20.955599 1.65730643,21.4905271 1.08719862,21.4905271" id="Shape"></path>
                    <path d="M26.8588274,22.7771472 L8.30323133,12.3216477 L8.30323133,22.5114455 C8.30323133,25.1286077 9.73515716,27.5207369 11.7514377,28.6911802 L13.794577,29.8770776 C22.0187499,34.6506265 31.6986713,34.6506265 39.9228443,29.8770776 L41.9659836,28.6911802 C43.9823809,27.5208724 45.41419,25.1286077 45.41419,22.5114455 L45.41419,12.3216477 L26.8588274,22.7771472 Z" id="Shape"></path>
                    <path d="M30.9822413,4.8268248 C30.9822413,7.47028612 29.1359889,9.61352322 26.8588274,9.61352322 C24.581666,9.61352322 22.7354135,7.47028612 22.7354135,4.8268248 C22.7354135,2.18336349 24.581666,0.0401263872 26.8588274,0.0401263872 C29.1359889,0.0401263872 30.9822413,2.18336349 30.9822413,4.8268248" id="Shape"></path>
                </g>
            </g>
            <g id="moneybag" transform="translate(6.000000, 43.000000)">
                <polygon id="Shape" fill="#FAC600" fill-rule="nonzero" points="31.6790859 8.76005836 42.7723184 8.76005836 42.7723184 13.6150127 31.6790859 13.6150127"></polygon>
                <path d="M37.2256348,0.00698419298 L29.0115352,0.00698419298 C27.7090254,0.00698419298 26.7831855,1.26346737 27.1630898,2.50504199 C28.6955098,7.51284266 31.6789512,8.96461463 31.6789512,8.96461463 L37.2255,8.96461463 L42.7720488,8.96461463 C42.7720488,8.96461463 45.755625,7.51284266 47.2879102,2.50504199 C47.6678145,1.26346737 46.7419746,0.00698419298 45.4394648,0.00698419298 L37.2256348,0.00698419298 Z" id="Shape" fill="#57BE92" fill-rule="nonzero"></path>
                <path d="M47.2877754,2.50531061 C45.755625,7.51297698 42.7724531,8.96461463 42.7724531,8.96461463 L39.9330762,8.96461463 C39.9330762,8.96461463 42.5482031,7.31177849 44.5382871,2.50531061 C45.0350332,1.30564115 43.9924863,0.00752143859 42.6899766,0.00752143859 L45.4394648,0.00752143859 C46.7419746,0.00752143859 47.6674102,1.26387031 47.2877754,2.50531061 L47.2877754,2.50531061 Z" id="Shape" fill="#22B27F" fill-rule="nonzero"></path>
                <polygon id="Shape" fill="#E8B800" fill-rule="nonzero" points="39.9330762 8.96461463 42.7721836 8.96461463 42.7721836 13.4104564 39.9330762 13.4104564"></polygon>
                <path d="M55.9106191,46.2622198 C54.887209,46.2622198 54.057457,45.4353988 54.057457,44.4153037 L54.057457,25.8059215 C54.057457,22.4228859 52.2750469,19.273955 49.330418,17.4548414 L42.7839082,13.4105907 L37.2255,13.4105907 L31.6672266,13.4105907 L25.1207168,17.4548414 C22.1760879,19.273955 20.3936777,22.4230202 20.3936777,25.8059215 L20.3936777,44.415438 C20.3936777,45.4353988 19.5640605,46.2623541 18.5405156,46.2623541 C17.1663105,46.2623541 16.0523379,47.3725722 16.0523379,48.7421456 L16.0523379,53.4836067 C16.0523379,54.8531801 17.1663105,55.9633982 18.5405156,55.9633982 L55.9106191,55.9633982 C57.2848242,55.9633982 58.3987969,54.8531801 58.3987969,53.4836067 L58.3987969,48.7421456 C58.3987969,47.3725722 57.2848242,46.2622198 55.9106191,46.2622198 L55.9106191,46.2622198 Z" id="Shape" fill="#57BE92" fill-rule="nonzero"></path>
                <path d="M58.3990664,48.7422799 L58.3990664,53.4833381 C58.3990664,54.8527772 57.2844199,55.9636668 55.9103496,55.9636668 L53.1608613,55.9636668 C54.5349316,55.9636668 55.6482305,54.8527772 55.6482305,53.4833381 L55.6482305,50.3728203 C55.6482305,49.4248504 54.8766973,48.656052 53.9256563,48.656052 L53.1609961,48.656052 C52.1369121,48.656052 51.3072949,47.829231 51.3072949,46.8085986 L51.3072949,25.8881201 C51.3606621,24.8979764 51.0857402,23.3163253 49.7428008,21.668996 C46.4547891,17.6360275 39.9332109,13.410725 39.9332109,13.410725 L42.7847168,13.410725 L49.3306875,17.4543041 C52.2746426,19.2734178 54.0581309,22.4230202 54.0581309,25.8053843 L54.0581309,44.4157066 C54.0581309,45.4349959 54.887748,46.2618169 55.9104844,46.2618169 C57.2844199,46.2619512 58.3990664,47.3728408 58.3990664,48.7422799 L58.3990664,48.7422799 Z" id="Shape" fill="#22B27F" fill-rule="nonzero"></path>
                <path d="M39.0270469,32.6797105 C38.7378398,32.5777682 38.4418945,32.4709906 38.1467578,32.3596464 L38.1467578,27.6514945 C38.8851387,27.8301287 39.3247441,28.2019026 39.3632871,28.2356148 C39.773918,28.60618 40.4085293,28.5783775 40.7845254,28.1716826 C41.163082,27.7627043 41.137207,27.1253967 40.7268457,26.7482503 C40.6698398,26.6958689 39.7131387,25.8368131 38.146623,25.6002907 L38.146623,24.6425161 C38.146623,24.086064 37.6942148,23.6351806 37.1358809,23.6351806 C36.5775469,23.6351806 36.1251387,24.086064 36.1251387,24.6425161 L36.1251387,25.6775198 C35.9782441,25.7098889 35.8293281,25.7469588 35.677043,25.792759 C34.2400371,26.2241672 33.1663594,27.4497588 32.8748613,28.9911164 C32.6089687,30.3968196 33.0611074,31.7525589 34.0544648,32.5290131 C34.5791074,32.9390658 35.2317773,33.3148691 36.1251387,33.7114907 L36.1251387,39.6876766 C35.3567051,39.630057 34.8220898,39.4410809 33.9481348,38.8713319 C33.4811719,38.5667136 32.8547812,38.6973986 32.548998,39.162922 C32.2433496,39.6284453 32.3743418,40.2527247 32.8415742,40.557343 C34.1218477,41.391954 34.9971504,41.6421762 36.1251387,41.7062427 L36.1251387,42.7788536 C36.1251387,43.3353057 36.5775469,43.7861891 37.1358809,43.7861891 C37.6942148,43.7861891 38.146623,43.3353057 38.146623,42.7788536 L38.146623,41.6259245 C40.3955918,41.1830998 41.7090176,39.3334974 42.0005156,37.6058499 C42.3757031,35.3819216 41.208498,33.4482404 39.0270469,32.6797105 L39.0270469,32.6797105 Z M35.302125,30.9438699 C34.9048359,30.6332077 34.7359746,30.0281348 34.8613066,29.3642335 C34.9732969,28.7717859 35.3639824,28.0603384 36.1251387,27.7687484 L36.1251387,31.4694305 C35.8157168,31.3014069 35.5356738,31.1263991 35.302125,30.9438699 L35.302125,30.9438699 Z M40.0070625,37.2718174 C39.8536992,38.1807027 39.2203008,39.1439841 38.146623,39.5317411 L38.146623,34.5055397 C38.2153535,34.5301187 38.2824668,34.5544291 38.3532188,34.5792767 C40.1995078,35.2297468 40.0859004,36.804548 40.0070625,37.2718174 L40.0070625,37.2718174 Z" id="Shape" fill="#067C4C" fill-rule="nonzero"></path>
                <g id="Group" transform="translate(0.000000, 45.531566)"></g>
            </g>
            <g id="362112" transform="translate(63.000000, 59.000000)" fill-rule="nonzero">
                <path d="M25.4065945,11.544 C25.4441715,11.9446406 25.4676842,12.3490391 25.4676842,12.7586406 C25.4676842,19.8052617 19.7667992,25.5172812 12.7339142,25.5172812 C12.3245341,25.5172812 11.9208519,25.4936504 11.5209922,25.4566504 C12.1322495,31.9323008 17.5702398,37 24.1943216,37 C31.2271345,37 36.9280916,31.2879805 36.9280916,24.2413594 C36.9280916,17.6049902 31.8695497,12.1563789 25.4065945,11.544" id="Shape" fill="#000000"></path>
                <g id="Group" transform="translate(20.194932, 16.548828)" fill="#FFFFFF">
                    <path d="M3.99917349,15.9858789 C3.64706043,15.9858789 3.36245614,15.7007187 3.36245614,15.347918 L3.36245614,1.31342773 C3.36245614,0.960626953 3.64706043,0.675466797 3.99917349,0.675466797 C4.35128655,0.675466797 4.63589084,0.960626953 4.63589084,1.31342773 L4.63589084,15.347918 C4.63589084,15.7007187 4.35128655,15.9858789 3.99917349,15.9858789" id="Shape"></path>
                    <path d="M7.18261598,5.14104883 C6.83050292,5.14104883 6.54589864,4.85588867 6.54589864,4.50308789 L6.54589864,0.675466797 C6.54589864,0.322666016 6.83050292,0.0375058594 7.18261598,0.0375058594 C7.53472904,0.0375058594 7.81933333,0.322666016 7.81933333,0.675466797 L7.81933333,4.50308789 C7.81933333,4.85588867 7.53472904,5.14104883 7.18261598,5.14104883" id="Shape"></path>
                    <path d="M0.815730994,15.347918 C0.463617934,15.347918 0.179013645,15.0627578 0.179013645,14.709957 L0.179013645,10.8823359 C0.179013645,10.5295352 0.463617934,10.244375 0.815730994,10.244375 C1.16784405,10.244375 1.45244834,10.5295352 1.45244834,10.8823359 L1.45244834,14.709957 C1.45244834,15.0627578 1.16784405,15.347918 0.815730994,15.347918" id="Shape"></path>
                    <path d="M7.18326511,3.22723828 C6.99610136,3.22723828 6.81081287,3.14492773 6.68473879,2.98673828 C6.214846,2.39661719 5.15288109,1.99026758 3.97818519,1.95073828 C3.62672125,1.93924805 3.35106043,1.64454883 3.36317739,1.29239844 C3.37529435,0.940248047 3.6790117,0.662748047 4.02023392,0.676189453 C5.59861209,0.727859375 6.96681871,1.295 7.6805653,2.19188867 C7.89960819,2.46750977 7.85503509,2.86872852 7.57930214,3.08819922 C7.46217154,3.18192773 7.32203314,3.22723828 7.18326511,3.22723828" id="Shape"></path>
                    <path d="M3.99917349,14.709957 C2.42591618,14.709957 1.08439571,14.1574863 0.317853801,13.1936074 C0.0988109162,12.9179863 0.143384016,12.5167676 0.419116959,12.2972969 C0.69420078,12.0778262 1.09528655,12.1231367 1.31368031,12.3987578 C1.82937232,13.0475586 2.83342105,13.4341074 3.99924561,13.4341074 C5.52987719,13.4341074 7.18268811,12.4587383 7.18268811,10.8824082 C7.18268811,9.35586914 5.53687329,8.33070898 3.99924561,8.33070898 C2.4259883,8.33070898 0.904300195,7.57220898 0.121818713,6.39774805 C-0.0729902534,6.10492773 0.00591423002,5.70876758 0.298812865,5.51292773 C0.589764133,5.31708789 0.98580117,5.39621875 1.18125926,5.68961719 C1.73330214,6.5189375 2.83984016,7.05478711 3.99924561,7.05478711 C6.14236062,7.05478711 8.45605068,8.51816602 8.45605068,10.8824082 C8.45605068,13.2466504 6.1422885,14.709957 3.99917349,14.709957" id="Shape"></path>
                </g>
                <path d="M25.4674678,12.7587852 C25.4674678,5.71216406 19.7665828,0.00014453125 12.7336979,0.00014453125 C5.70081287,0.00014453125 0,5.71223633 0,12.7587852 C0,19.805334 5.70088499,25.5174258 12.73377,25.5174258 C19.766655,25.5174258 25.4674678,19.8054063 25.4674678,12.7587852" id="Shape" fill="#E00122"></path>
                <g id="Group" transform="translate(8.222222, 4.408203)" fill="#FFFFFF">
                    <path d="M4.51154776,16.6437129 C4.1594347,16.6437129 3.87483041,16.3585527 3.87483041,16.005752 L3.87483041,0.695412109 C3.87483041,0.342611328 4.1594347,0.0574511719 4.51154776,0.0574511719 C4.86366082,0.0574511719 5.14826511,0.342611328 5.14826511,0.695412109 L5.14826511,16.005752 C5.14819298,16.3585527 4.86358869,16.6437129 4.51154776,16.6437129" id="Shape"></path>
                    <path d="M4.51154776,15.3678633 C2.93829045,15.3678633 1.59676998,14.8153926 0.83022807,13.8515137 C0.611185185,13.5758926 0.655758285,13.1746738 0.931491228,12.9552031 C1.20657505,12.7357324 1.60766082,12.7803926 1.82605458,13.0566641 C2.34174659,13.7054648 3.34579532,14.0920137 4.51161988,14.0920137 C6.04225146,14.0920137 7.69506238,13.1166445 7.69506238,11.5403145 C7.69506238,10.0137754 6.04924756,8.98861523 4.51161988,8.98861523 C2.36850487,8.98861523 0.0548148148,7.52523633 0.0548148148,5.16099414 C0.0548148148,2.79675195 2.36850487,1.33337305 4.51161988,1.33337305 C6.10781287,1.33337305 7.41557895,1.87175195 8.19293957,2.84972266 C8.41198246,3.12534375 8.36740936,3.5265625 8.09167641,3.7460332 C7.81659259,3.96550391 7.41615595,3.92019336 7.19711306,3.64457227 C6.6661306,2.97669336 5.71235283,2.60922266 4.51154776,2.60922266 C2.97392008,2.60922266 1.32810526,3.63438281 1.32810526,5.16092187 C1.32810526,6.73725195 2.98091618,7.71262109 4.51154776,7.71262109 C6.65466277,7.71262109 8.96835283,9.176 8.96835283,11.5402422 C8.96835283,13.9044844 6.65459064,15.3678633 4.51154776,15.3678633" id="Shape"></path>
                    <path d="M7.69499025,5.79888281 C7.34287719,5.79888281 7.0582729,5.51372266 7.0582729,5.16092187 L7.0582729,1.33337305 C7.0582729,0.980572266 7.34287719,0.695412109 7.69499025,0.695412109 C8.04710331,0.695412109 8.3317076,0.980572266 8.3317076,1.33337305 L8.3317076,5.16099414 C8.33163548,5.51372266 8.04703119,5.79888281 7.69499025,5.79888281" id="Shape"></path>
                    <path d="M1.32810526,16.005752 C0.975992203,16.005752 0.691387914,15.7205918 0.691387914,15.367791 L0.691387914,11.5401699 C0.691387914,11.1873691 0.975992203,10.902209 1.32810526,10.902209 C1.68021832,10.902209 1.96482261,11.1873691 1.96482261,11.5401699 L1.96482261,15.367791 C1.96475049,15.7205918 1.6801462,16.005752 1.32810526,16.005752" id="Shape"></path>
                </g>
            </g>
        </g>
    </g>
</svg>