<svg width="280" height="280" viewBox="0 0 280 280" fill="none" xmlns="http://www.w3.org/2000/svg">
<path d="M39.5864 52.3044V62.0853H57.1466V147.307C57.1466 181.452 79.4024 199.184 113.281 199.744C126.236 214.148 144.572 224.201 165.402 227.17C167.045 227.414 168.609 227.582 169.908 227.695V217.983C168.233 217.694 167.07 217.422 167.07 217.422C135.151 209.299 111.614 182.133 111.614 147.308C111.614 120.625 127.215 99.0482 150.257 86.9522V73.8409C117.142 84.6856 93.3933 112.684 93.3933 147.309C93.3933 164.431 97.8574 177.809 105.638 189.79C85.1587 186.192 76.3331 171.907 76.3331 147.309V52.3061H76.3112H39.5892L39.5864 52.3044ZM136.37 52.3564V62.1318H169.88V52.3564H136.37V52.3564ZM180.764 69.3832C177.064 69.3832 173.419 69.5998 169.835 70.0285L169.906 147.307C169.906 162.338 167.736 171.208 160.043 180.666C151.58 171.328 150.243 160.722 150.243 147.307C150.243 140.16 150.254 106.157 150.254 106.157C139.023 117.021 131.999 130.517 131.999 147.307C131.999 182.433 159.123 209.865 192.225 209.865C203.584 209.865 216.688 207.087 226.249 200.584L223.837 196.983C210.933 203.57 184.737 205.1 168.732 190.12C182.264 180.133 189.089 167.35 189.089 147.308V78.558C211.754 78.558 225.345 92.0388 226.077 107.488L234.507 109.145L240.414 74.7523L230.376 72.8L229.151 80.139C211.047 71.0337 195.857 69.3848 180.765 69.3848L180.764 69.3832Z" fill="white"/>
</svg>
