<svg width="80" height="80" viewBox="0 0 80 80" fill="none" xmlns="http://www.w3.org/2000/svg">
<path d="M11.3104 14.9442V17.7387H16.3276V42.0879C16.3276 51.8435 22.6864 56.9099 32.366 57.0699C36.0675 61.1851 41.3064 64.0575 47.2576 64.9059C47.7271 64.9754 48.1741 65.0234 48.5452 65.0559V62.2809C48.0667 62.1984 47.7342 62.1207 47.7342 62.1207C38.6146 59.7997 31.8898 52.0379 31.8898 42.0879C31.8898 34.4643 36.347 28.2995 42.9306 24.8435V21.0974C33.469 24.1959 26.6838 32.1954 26.6838 42.0882C26.6838 46.9802 27.9593 50.8026 30.1823 54.2258C24.3311 53.1978 21.8095 49.1162 21.8095 42.0882V14.9446H21.8032H11.3112L11.3104 14.9442ZM38.9628 14.959V17.752H48.5372V14.959H38.9628ZM51.6468 19.8238C50.5898 19.8238 49.5482 19.8857 48.5242 20.0082L48.5445 42.0878C48.5445 46.3822 47.9245 48.9166 45.7265 51.619C43.3085 48.951 42.9265 45.9206 42.9265 42.0878C42.9265 40.0458 42.9297 30.3306 42.9297 30.3306C39.7207 33.4346 37.7141 37.2906 37.7141 42.0878C37.7141 52.1238 45.4637 59.9614 54.9213 59.9614C58.1669 59.9614 61.9109 59.1678 64.6426 57.3098L63.9535 56.2809C60.2665 58.1629 52.7819 58.5999 48.2091 54.32C52.0756 51.4665 54.0255 47.8144 54.0255 42.088V22.4452C60.5011 22.4452 64.3843 26.2968 64.5935 30.7108L67.0021 31.1842L68.6896 21.3578L65.8217 20.8L65.4717 22.8969C60.2993 20.2954 55.9593 19.8243 51.6473 19.8243L51.6468 19.8238Z" fill="#E00122"/>
</svg>